<svg width="152" height="24" viewBox="0 0 152 24" fill="none" xmlns="http://www.w3.org/2000/svg">
<path d="M13.73 3.51014L15.49 7.03014C15.73 7.52014 16.37 7.99014 16.91 8.08014L20.1 8.61014C22.14 8.95014 22.62 10.4301 21.15 11.8901L18.67 14.3701C18.25 14.7901 18.02 15.6001 18.15 16.1801L18.86 19.2501C19.42 21.6801 18.13 22.6201 15.98 21.3501L12.99 19.5801C12.45 19.2601 11.56 19.2601 11.01 19.5801L8.01997 21.3501C5.87997 22.6201 4.57997 21.6701 5.13997 19.2501L5.84997 16.1801C5.97997 15.6001 5.74997 14.7901 5.32997 14.3701L2.84997 11.8901C1.38997 10.4301 1.85997 8.95014 3.89997 8.61014L7.08997 8.08014C7.61997 7.99014 8.25997 7.52014 8.49997 7.03014L10.26 3.51014C11.22 1.60014 12.78 1.60014 13.73 3.51014V3.51014Z" stroke="black" stroke-width="1.5" stroke-linecap="round" stroke-linejoin="round"/>
<path d="M45.73 3.51014L47.49 7.03014C47.73 7.52014 48.37 7.99014 48.91 8.08014L52.1 8.61014C54.14 8.95014 54.62 10.4301 53.15 11.8901L50.67 14.3701C50.25 14.7901 50.02 15.6001 50.15 16.1801L50.86 19.2501C51.42 21.6801 50.13 22.6201 47.98 21.3501L44.99 19.5801C44.45 19.2601 43.56 19.2601 43.01 19.5801L40.02 21.3501C37.88 22.6201 36.58 21.6701 37.14 19.2501L37.85 16.1801C37.98 15.6001 37.75 14.7901 37.33 14.3701L34.85 11.8901C33.39 10.4301 33.86 8.95014 35.9 8.61014L39.09 8.08014C39.62 7.99014 40.26 7.52014 40.5 7.03014L42.26 3.51014C43.22 1.60014 44.78 1.60014 45.73 3.51014V3.51014Z" stroke="black" stroke-width="1.5" stroke-linecap="round" stroke-linejoin="round"/>
<path d="M77.73 3.51014L79.49 7.03014C79.73 7.52014 80.37 7.99014 80.91 8.08014L84.1 8.61014C86.14 8.95014 86.62 10.4301 85.15 11.8901L82.67 14.3701C82.25 14.7901 82.02 15.6001 82.15 16.1801L82.86 19.2501C83.42 21.6801 82.13 22.6201 79.98 21.3501L76.99 19.5801C76.45 19.2601 75.56 19.2601 75.01 19.5801L72.02 21.3501C69.88 22.6201 68.58 21.6701 69.14 19.2501L69.85 16.1801C69.98 15.6001 69.75 14.7901 69.33 14.3701L66.85 11.8901C65.39 10.4301 65.86 8.95014 67.9 8.61014L71.09 8.08014C71.62 7.99014 72.26 7.52014 72.5 7.03014L74.26 3.51014C75.22 1.60014 76.78 1.60014 77.73 3.51014V3.51014Z" stroke="black" stroke-width="1.5" stroke-linecap="round" stroke-linejoin="round"/>
<path d="M109.73 3.51014L111.49 7.03014C111.73 7.52014 112.37 7.99014 112.91 8.08014L116.1 8.61014C118.14 8.95014 118.62 10.4301 117.15 11.8901L114.67 14.3701C114.25 14.7901 114.02 15.6001 114.15 16.1801L114.86 19.2501C115.42 21.6801 114.13 22.6201 111.98 21.3501L108.99 19.5801C108.45 19.2601 107.56 19.2601 107.01 19.5801L104.02 21.3501C101.88 22.6201 100.58 21.6701 101.14 19.2501L101.85 16.1801C101.98 15.6001 101.75 14.7901 101.33 14.3701L98.85 11.8901C97.39 10.4301 97.86 8.95014 99.9 8.61014L103.09 8.08014C103.62 7.99014 104.26 7.52014 104.5 7.03014L106.26 3.51014C107.22 1.60014 108.78 1.60014 109.73 3.51014V3.51014Z" stroke="black" stroke-width="1.5" stroke-linecap="round" stroke-linejoin="round"/>
<path d="M141.73 3.51014L143.49 7.03014C143.73 7.52014 144.37 7.99014 144.91 8.08014L148.1 8.61014C150.14 8.95014 150.62 10.4301 149.15 11.8901L146.67 14.3701C146.25 14.7901 146.02 15.6001 146.15 16.1801L146.86 19.2501C147.42 21.6801 146.13 22.6201 143.98 21.3501L140.99 19.5801C140.45 19.2601 139.56 19.2601 139.01 19.5801L136.02 21.3501C133.88 22.6201 132.58 21.6701 133.14 19.2501L133.85 16.1801C133.98 15.6001 133.75 14.7901 133.33 14.3701L130.85 11.8901C129.39 10.4301 129.86 8.95014 131.9 8.61014L135.09 8.08014C135.62 7.99014 136.26 7.52014 136.5 7.03014L138.26 3.51014C139.22 1.60014 140.78 1.60014 141.73 3.51014V3.51014Z" stroke="black" stroke-width="1.5" stroke-linecap="round" stroke-linejoin="round"/>
</svg>
