<svg width="30" height="30" viewBox="0 0 30 30" fill="none" xmlns="http://www.w3.org/2000/svg">
<path d="M11.25 27.5H18.75C25 27.5 27.5 25 27.5 18.75V11.25C27.5 5 25 2.5 18.75 2.5H11.25C5 2.5 2.5 5 2.5 11.25V18.75C2.5 25 5 27.5 11.25 27.5Z" stroke="black" stroke-opacity="0.4" stroke-width="1.5" stroke-linecap="round" stroke-linejoin="round"/>
<path d="M2.5 16.2498H7.2C7.66511 16.2501 8.12092 16.38 8.51619 16.6252C8.91147 16.8703 9.23053 17.2208 9.4375 17.6373L10.55 19.8748C11.25 21.2498 12.5 21.2498 12.8 21.2498H17.2125C17.6776 21.2496 18.1334 21.1196 18.5287 20.8745C18.924 20.6293 19.243 20.2788 19.45 19.8623L20.5625 17.6248C20.7695 17.2083 21.0885 16.8578 21.4838 16.6127C21.8791 16.3675 22.3349 16.2376 22.8 16.2373H27.475" stroke="black" stroke-opacity="0.4" stroke-width="1.5" stroke-linecap="round" stroke-linejoin="round"/>
</svg>
