<svg width="24" height="24" viewBox="0 0 24 24" fill="none" xmlns="http://www.w3.org/2000/svg">
<path d="M13.4098 12L17.7098 7.71003C17.8981 7.52173 18.0039 7.26633 18.0039 7.00003C18.0039 6.73373 17.8981 6.47834 17.7098 6.29003C17.5215 6.10173 17.2661 5.99594 16.9998 5.99594C16.7335 5.99594 16.4781 6.10173 16.2898 6.29003L11.9998 10.59L7.70982 6.29003C7.52151 6.10173 7.26612 5.99594 6.99982 5.99594C6.73352 5.99594 6.47812 6.10173 6.28982 6.29003C6.10151 6.47834 5.99573 6.73373 5.99573 7.00003C5.99573 7.26633 6.10151 7.52173 6.28982 7.71003L10.5898 12L6.28982 16.29C6.19609 16.383 6.12169 16.4936 6.07093 16.6155C6.02016 16.7373 5.99402 16.868 5.99402 17C5.99402 17.132 6.02016 17.2628 6.07093 17.3846C6.12169 17.5065 6.19609 17.6171 6.28982 17.71C6.38278 17.8038 6.49338 17.8782 6.61524 17.9289C6.7371 17.9797 6.86781 18.0058 6.99982 18.0058C7.13183 18.0058 7.26253 17.9797 7.38439 17.9289C7.50625 17.8782 7.61685 17.8038 7.70982 17.71L11.9998 13.41L16.2898 17.71C16.3828 17.8038 16.4934 17.8782 16.6152 17.9289C16.7371 17.9797 16.8678 18.0058 16.9998 18.0058C17.1318 18.0058 17.2625 17.9797 17.3844 17.9289C17.5063 17.8782 17.6169 17.8038 17.7098 17.71C17.8035 17.6171 17.8779 17.5065 17.9287 17.3846C17.9795 17.2628 18.0056 17.132 18.0056 17C18.0056 16.868 17.9795 16.7373 17.9287 16.6155C17.8779 16.4936 17.8035 16.383 17.7098 16.29L13.4098 12Z" fill="#231F20"/>
</svg>
