<svg width="0" height="0" class="hidden">
  <symbol fill="none" xmlns="http://www.w3.org/2000/svg" viewBox="0 0 30 30" id="email">
    <path d="M11.25 27.5H18.75C25 27.5 27.5 25 27.5 18.75V11.25C27.5 5 25 2.5 18.75 2.5H11.25C5 2.5 2.5 5 2.5 11.25V18.75C2.5 25 5 27.5 11.25 27.5Z" stroke="currentColor" stroke-opacity="0.4" stroke-width="1.5" stroke-linecap="round" stroke-linejoin="round"></path>
    <path d="M2.5 16.2498H7.2C7.66511 16.2501 8.12092 16.38 8.51619 16.6252C8.91147 16.8703 9.23053 17.2208 9.4375 17.6373L10.55 19.8748C11.25 21.2498 12.5 21.2498 12.8 21.2498H17.2125C17.6776 21.2496 18.1334 21.1196 18.5287 20.8745C18.924 20.6293 19.243 20.2788 19.45 19.8623L20.5625 17.6248C20.7695 17.2083 21.0885 16.8578 21.4838 16.6127C21.8791 16.3675 22.3349 16.2376 22.8 16.2373H27.475" stroke="currentColor" stroke-opacity="0.4" stroke-width="1.5" stroke-linecap="round" stroke-linejoin="round"></path>
  </symbol>
  <symbol fill="none" xmlns="http://www.w3.org/2000/svg" viewBox="0 0 30 30" id="facebook">
    <path d="M17.5 11.625V15.25H20.75C21 15.25 21.125 15.5 21.125 15.75L20.625 18.125C20.625 18.25 20.375 18.375 20.25 18.375H17.5V27.5H13.75V18.5H11.625C11.375 18.5 11.25 18.375 11.25 18.125V15.75C11.25 15.5 11.375 15.375 11.625 15.375H13.75V11.25C13.75 9.125 15.375 7.5 17.5 7.5H20.875C21.125 7.5 21.25 7.625 21.25 7.875V10.875C21.25 11.125 21.125 11.25 20.875 11.25H17.875C17.625 11.25 17.5 11.375 17.5 11.625V11.625Z" stroke="currentColor" stroke-opacity="0.4" stroke-width="1.5" stroke-miterlimit="10" stroke-linecap="round"></path>
    <path d="M18.75 27.5H11.25C5 27.5 2.5 25 2.5 18.75V11.25C2.5 5 5 2.5 11.25 2.5H18.75C25 2.5 27.5 5 27.5 11.25V18.75C27.5 25 25 27.5 18.75 27.5Z" stroke="currentColor" stroke-opacity="0.4" stroke-width="1.5" stroke-linecap="round" stroke-linejoin="round"></path>
  </symbol>
  <symbol fill="none" xmlns="http://www.w3.org/2000/svg" viewBox="0 0 30 30" id="instagram">
    <path d="M11.25 27.5H18.75C25 27.5 27.5 25 27.5 18.75V11.25C27.5 5 25 2.5 18.75 2.5H11.25C5 2.5 2.5 5 2.5 11.25V18.75C2.5 25 5 27.5 11.25 27.5Z" stroke="currentColor" stroke-opacity="0.4" stroke-width="1.5" stroke-linecap="round" stroke-linejoin="round"></path>
    <path d="M15 19.375C15.5745 19.375 16.1434 19.2618 16.6742 19.042C17.205 18.8221 17.6873 18.4998 18.0936 18.0936C18.4998 17.6873 18.8221 17.205 19.042 16.6742C19.2618 16.1434 19.375 15.5745 19.375 15C19.375 14.4255 19.2618 13.8566 19.042 13.3258C18.8221 12.795 18.4998 12.3127 18.0936 11.9064C17.6873 11.5002 17.205 11.1779 16.6742 10.958C16.1434 10.7382 15.5745 10.625 15 10.625C13.8397 10.625 12.7269 11.0859 11.9064 11.9064C11.0859 12.7269 10.625 13.8397 10.625 15C10.625 16.1603 11.0859 17.2731 11.9064 18.0936C12.7269 18.9141 13.8397 19.375 15 19.375V19.375Z" stroke="currentColor" stroke-opacity="0.4" stroke-width="1.5" stroke-linecap="round" stroke-linejoin="round"></path>
    <path d="M22.045 8.75H22.06" stroke="currentColor" stroke-opacity="0.4" stroke-width="2" stroke-linecap="round" stroke-linejoin="round"></path>
  </symbol>
</svg>